<?xml version="1.0" standalone="no"?>
<!DOCTYPE svg PUBLIC "-//W3C//DTD SVG 20010904//EN"
 "http://www.w3.org/TR/2001/REC-SVG-20010904/DTD/svg10.dtd">
<svg version="1.0" xmlns="http://www.w3.org/2000/svg"
 width="512.000000pt" height="512.000000pt" viewBox="0 0 512.000000 512.000000"
 preserveAspectRatio="xMidYMid meet">

<g transform="translate(0.000000,512.000000) scale(0.100000,-0.100000)"
fill="#000000" stroke="none">
<path d="M2345 4629 c-393 -41 -793 -208 -1101 -460 -535 -437 -822 -1127
-754 -1810 73 -719 510 -1349 1155 -1665 493 -241 1045 -279 1565 -108 781
257 1337 951 1420 1773 54 538 -115 1093 -462 1519 -438 536 -1134 823 -1823
751z m55 -2069 l0 -1750 -22 0 c-13 0 -63 7 -113 16 -729 126 -1299 690 -1437
1422 -32 168 -32 456 0 624 105 556 453 1015 961 1268 167 83 448 165 579 169
l32 1 0 -1750z"/>
</g>
</svg>
